<svg width="64" height="64" viewBox="0 0 64 64" fill="none" xmlns="http://www.w3.org/2000/svg">
<circle cx="32" cy="32" r="32" fill="#0101FD"/>
<path fill-rule="evenodd" clip-rule="evenodd" d="M18 23.1429V27.2857V31.4286V35.5714C18 37.2007 18.035 37.4423 18.035 37.6092C18.035 38.3481 18.164 39.0568 18.4005 39.7143C19.0262 41.4525 20.4048 43.7635 22.1429 44.3897V39.7143V35.5714V31.4286C22.1429 26.4703 22.1594 29.1891 22.1594 25.2544C22.1594 24.0994 23.0957 23.1629 24.2508 23.1629C27.8908 23.1629 25.6444 23.1429 30.4286 23.1429H34.5714H38.7143H42.8571H47C47 20.8549 45.1451 19 42.8571 19H38.7143H34.5714H30.4286H26.2857H22.1429C19.8547 19 18 20.8549 18 23.1429ZM41.0556 31.4286C42.0734 31.5697 42.8571 32.4433 42.8571 33.5C42.8571 34.5565 42.0737 35.4302 41.0559 35.5714H38.7143H34.5714H30.4286H26.2857V39.7143V44.4143C28.0566 43.8002 29.4638 41.4756 30.0979 39.7143H30.4286H34.5714H38.7143H40.7658C41.4996 39.7143 42.2037 39.5872 42.8571 39.3535C44.6134 38.726 46.0048 37.3304 46.6264 35.5713C46.8554 34.9234 46.98 34.2262 46.98 33.4998C46.98 32.7735 46.8554 32.0763 46.6264 31.4284C46.0046 29.6693 44.6134 28.2739 42.8571 27.6462C42.2035 27.4127 41.4996 27.2855 40.7658 27.2855H38.7143H34.5714H30.4286H28.0672C27.1442 27.4135 26.414 28.1439 26.2859 29.0667V29.6471C26.414 30.5699 27.1442 31.3001 28.067 31.4282H30.4286H34.5714H38.7143H41.0556V31.4286Z" fill="white"/>
</svg>
