<svg width="27" height="31" viewBox="0 0 27 31" fill="none" xmlns="http://www.w3.org/2000/svg">
<path d="M22.5274 16.4059C22.4913 12.5383 25.8115 10.6567 25.9633 10.5691C24.083 7.92549 21.1685 7.56429 20.1443 7.53549C17.6965 7.28709 15.3221 8.94789 14.0752 8.94789C12.8033 8.94789 10.8832 7.55949 8.81364 7.60029C6.15053 7.63989 3.65915 9.12669 2.29275 11.4355C-0.527157 16.1431 1.57595 23.0611 4.27764 26.8663C5.62911 28.7299 7.20831 30.8107 9.27533 30.7375C11.2976 30.6571 12.0529 29.4943 14.4933 29.4943C16.9112 29.4943 17.6206 30.7375 19.7287 30.6907C21.899 30.6571 23.2654 28.8187 24.5696 26.9383C26.1313 24.8023 26.7585 22.6987 26.7834 22.5907C26.7324 22.5739 22.5685 21.0415 22.5274 16.4059Z" fill="white"/>
<path d="M18.5452 5.03229C19.6328 3.72069 20.377 1.93629 20.1704 0.125488C18.5962 0.192688 16.6275 1.17549 15.4938 2.45829C14.4908 3.58869 13.5948 5.44149 13.8263 7.18389C15.5946 7.31109 17.4103 6.32349 18.5452 5.03229Z" fill="white"/>
</svg>
