<svg width="72" height="72" viewBox="0 0 72 72" fill="none" xmlns="http://www.w3.org/2000/svg">
<rect width="72" height="72" rx="8" fill="#C3FAC3"/>
<rect x="8" y="8" width="56" height="56" rx="8" fill="#07E208"/>
<path d="M45 22.5H27C23.685 22.5 21 25.17 21 28.455V43.545C21 46.83 23.685 49.5 27 49.5H45C48.315 49.5 51 46.83 51 43.545V28.455C51 25.17 48.315 22.5 45 22.5ZM30.75 28.755C32.655 28.755 34.215 30.315 34.215 32.22C34.215 34.125 32.655 35.685 30.75 35.685C28.845 35.685 27.285 34.125 27.285 32.22C27.285 30.315 28.845 28.755 30.75 28.755ZM36.555 42.99C36.42 43.14 36.21 43.23 36 43.23H25.5C25.29 43.23 25.08 43.14 24.945 42.99C24.81 42.84 24.735 42.63 24.75 42.42C25.005 39.9 27.015 37.905 29.535 37.665C30.33 37.59 31.155 37.59 31.95 37.665C34.47 37.905 36.495 39.9 36.735 42.42C36.765 42.63 36.69 42.84 36.555 42.99ZM46.5 43.125H43.5C42.885 43.125 42.375 42.615 42.375 42C42.375 41.385 42.885 40.875 43.5 40.875H46.5C47.115 40.875 47.625 41.385 47.625 42C47.625 42.615 47.115 43.125 46.5 43.125ZM46.5 37.125H40.5C39.885 37.125 39.375 36.615 39.375 36C39.375 35.385 39.885 34.875 40.5 34.875H46.5C47.115 34.875 47.625 35.385 47.625 36C47.625 36.615 47.115 37.125 46.5 37.125ZM46.5 31.125H39C38.385 31.125 37.875 30.615 37.875 30C37.875 29.385 38.385 28.875 39 28.875H46.5C47.115 28.875 47.625 29.385 47.625 30C47.625 30.615 47.115 31.125 46.5 31.125Z" fill="white"/>
</svg>
