<svg width="72" height="72" viewBox="0 0 72 72" fill="none" xmlns="http://www.w3.org/2000/svg">
<rect width="72" height="72" rx="8" fill="#C3FAC3"/>
<rect x="8" y="8" width="56" height="56" rx="8" fill="#07E208"/>
<path d="M44.2951 29.655C44.1901 29.64 44.0851 29.64 43.9801 29.655C41.6551 29.58 39.8101 27.675 39.8101 25.335C39.8101 22.95 41.7451 21 44.1451 21C46.5301 21 48.4801 22.935 48.4801 25.335C48.4651 27.675 46.6201 29.58 44.2951 29.655Z" fill="white"/>
<path d="M49.1849 40.05C47.5049 41.175 45.1499 41.595 42.9749 41.31C43.5449 40.08 43.8449 38.715 43.8599 37.275C43.8599 35.775 43.5299 34.35 42.8999 33.105C45.1199 32.805 47.4749 33.225 49.1699 34.35C51.5399 35.91 51.5399 38.475 49.1849 40.05Z" fill="white"/>
<path d="M27.6602 29.655C27.7652 29.64 27.8702 29.64 27.9752 29.655C30.3002 29.58 32.1452 27.675 32.1452 25.335C32.1452 22.935 30.2102 21 27.8102 21C25.4252 21 23.4902 22.935 23.4902 25.335C23.4902 27.675 25.3352 29.58 27.6602 29.655Z" fill="white"/>
<path d="M27.8252 37.275C27.8252 38.73 28.1402 40.11 28.7102 41.355C26.5952 41.58 24.3902 41.13 22.7702 40.065C20.4002 38.49 20.4002 35.925 22.7702 34.35C24.3752 33.27 26.6402 32.835 28.7702 33.075C28.1552 34.335 27.8252 35.76 27.8252 37.275Z" fill="white"/>
<path d="M36.1802 41.805C36.0602 41.79 35.9252 41.79 35.7902 41.805C33.0302 41.715 30.8252 39.45 30.8252 36.66C30.8402 33.81 33.1352 31.5 36.0002 31.5C38.8502 31.5 41.1602 33.81 41.1602 36.66C41.1452 39.45 38.9552 41.715 36.1802 41.805Z" fill="white"/>
<path d="M31.3052 44.91C29.0402 46.425 29.0402 48.915 31.3052 50.415C33.8852 52.14 38.1152 52.14 40.6952 50.415C42.9602 48.9 42.9602 46.41 40.6952 44.91C38.1302 43.185 33.9002 43.185 31.3052 44.91Z" fill="white"/>
</svg>
