<svg width="72" height="72" viewBox="0 0 72 72" fill="none" xmlns="http://www.w3.org/2000/svg">
<rect width="72" height="72" rx="8" fill="#C3FAC3"/>
<rect x="8" y="8" width="56" height="56" rx="8" fill="#07E208"/>
<path d="M30.375 26.625C29.76 26.625 29.25 26.115 29.25 25.5V21C29.25 20.385 29.76 19.875 30.375 19.875C30.99 19.875 31.5 20.385 31.5 21V25.5C31.5 26.115 30.99 26.625 30.375 26.625Z" fill="white"/>
<path d="M41.625 26.625C41.01 26.625 40.5 26.115 40.5 25.5V21C40.5 20.385 41.01 19.875 41.625 19.875C42.24 19.875 42.75 20.385 42.75 21V25.5C42.75 26.115 42.24 26.625 41.625 26.625Z" fill="white"/>
<path d="M35.9999 39.135C36.7799 39.135 37.3499 38.67 37.3499 37.935C37.3499 37.185 36.7799 36.75 35.9999 36.75C35.2199 36.75 34.6499 37.185 34.6499 37.935C34.6499 38.67 35.2199 39.135 35.9999 39.135Z" fill="white"/>
<path d="M36 43.5C36.9444 43.5 37.71 42.8754 37.71 42.105C37.71 41.3345 36.9444 40.71 36 40.71C35.0556 40.71 34.29 41.3345 34.29 42.105C34.29 42.8754 35.0556 43.5 36 43.5Z" fill="white"/>
<path d="M47.355 24.75C46.365 24.015 44.94 24.72 44.94 25.965V26.115C44.94 27.87 43.68 29.49 41.925 29.67C39.9 29.88 38.19 28.29 38.19 26.31V24.75C38.19 23.925 37.515 23.25 36.69 23.25H35.31C34.485 23.25 33.81 23.925 33.81 24.75V26.31C33.81 27.495 33.195 28.545 32.265 29.13C32.13 29.22 31.98 29.295 31.83 29.37C31.695 29.445 31.545 29.505 31.38 29.55C31.2 29.61 31.005 29.655 30.795 29.67C30.555 29.7 30.315 29.7 30.075 29.67C29.865 29.655 29.67 29.61 29.49 29.55C29.34 29.505 29.19 29.445 29.04 29.37C28.89 29.295 28.74 29.22 28.605 29.13C27.66 28.47 27.06 27.33 27.06 26.115V25.965C27.06 24.81 25.83 24.12 24.855 24.615C24.84 24.63 24.825 24.63 24.81 24.645C24.75 24.675 24.705 24.705 24.645 24.75C24.6 24.795 24.54 24.825 24.495 24.87C24.075 25.2 23.7 25.575 23.385 25.98C23.22 26.16 23.085 26.355 22.965 26.55C22.95 26.565 22.935 26.58 22.92 26.61C22.785 26.805 22.665 27.03 22.56 27.24C22.53 27.27 22.515 27.285 22.515 27.315C22.425 27.495 22.335 27.675 22.275 27.87C22.23 27.945 22.215 28.005 22.185 28.08C22.095 28.305 22.035 28.53 21.975 28.755C21.915 28.965 21.87 29.19 21.84 29.415C21.81 29.58 21.795 29.745 21.78 29.925C21.765 30.135 21.75 30.345 21.75 30.555V43.695C21.75 47.73 25.02 51 29.055 51H42.945C46.98 51 50.25 47.73 50.25 43.695V30.555C50.25 28.17 49.11 26.085 47.355 24.75ZM36 45.375C33.675 45.375 32.25 44.22 32.25 42.36C32.25 41.34 32.775 40.455 33.69 39.93C33.03 39.465 32.595 38.775 32.595 37.83C32.595 35.88 34.155 34.875 36 34.875C37.845 34.875 39.39 35.88 39.39 37.83C39.39 38.775 38.97 39.465 38.295 39.93C39.225 40.455 39.75 41.34 39.75 42.36C39.75 44.22 38.31 45.375 36 45.375Z" fill="white"/>
</svg>
