<svg width="64" height="64" viewBox="0 0 64 64" fill="none" xmlns="http://www.w3.org/2000/svg">
<circle cx="32" cy="32" r="32" fill="#2A2B30"/>
<path d="M38.712 20.608C38.8613 20.8427 38.9893 21.1627 39.096 21.568C39.224 21.952 39.288 22.3573 39.288 22.784C39.288 23.616 39.1067 24.2133 38.744 24.576C38.4027 24.9173 37.9333 25.088 37.336 25.088H30.616V28.704H37.624C37.7947 28.9387 37.9333 29.248 38.04 29.632C38.168 30.016 38.232 30.4213 38.232 30.848C38.232 31.6587 38.0507 32.2453 37.688 32.608C37.3467 32.9493 36.8773 33.12 36.28 33.12H30.68V39.872C30.4453 39.936 30.072 40 29.56 40.064C29.0693 40.128 28.5787 40.16 28.088 40.16C27.5973 40.16 27.16 40.1173 26.776 40.032C26.4133 39.968 26.104 39.84 25.848 39.648C25.592 39.456 25.4 39.1893 25.272 38.848C25.144 38.5067 25.08 38.0587 25.08 37.504V23.584C25.08 22.6667 25.3467 21.9413 25.88 21.408C26.4133 20.8747 27.1387 20.608 28.056 20.608H38.712Z" fill="white"/>
</svg>
