<svg width="63" height="62" viewBox="0 0 63 62" fill="none" xmlns="http://www.w3.org/2000/svg">
<g id="3c540829-c3d2-4c21-9746-e6e932696e8b 2">
<g id="Group">
<path id="Vector" d="M29.4263 2.00225C26.4784 2.25584 22.9177 3.25961 20.1811 4.6015C18.0678 5.64753 14.4543 8.18338 14.6444 8.50037C14.6973 8.57433 14.6656 8.58489 14.5916 8.53206C14.2958 8.36301 11.5169 11.5117 10.175 13.5509C8.99162 15.326 7.5652 18.2 7.48067 18.9502C7.45954 19.0875 7.41728 19.2249 7.38558 19.2566C7.12143 19.4573 6.35011 22.754 6.10709 24.6453C5.92747 26.0717 5.93803 29.6007 6.11766 30.8264C6.4769 33.3094 7.36445 36.2679 8.47388 38.6981C8.91766 39.6596 9.82633 41.2762 9.94256 41.3185C9.99539 41.3396 10.0377 41.403 10.0377 41.4558C10.0377 41.6143 10.8407 42.7766 11.6754 43.8332C12.6052 44.9849 14.3275 46.7177 15.4792 47.6475C17.2226 49.0528 20.3395 50.9547 20.6248 50.7857C20.6988 50.7434 20.7305 50.754 20.6777 50.7962C20.5086 50.9864 23.1818 52.0007 25.3056 52.5396C27.5033 53.0996 29.215 53.3109 31.6452 53.3109C33.8535 53.3109 34.4346 53.2475 37.2663 52.6875C38.3229 52.4762 39.3056 52.3283 39.4324 52.36C39.6226 52.4128 40.0875 53.1207 41.4188 55.3924L43.1622 58.3509H44.0603L44.9584 58.3404L47.8112 53.163C49.3856 50.3102 50.812 47.7004 50.9916 47.3728C51.1607 47.0453 51.615 46.2317 51.9848 45.566C52.3546 44.9004 52.735 44.203 52.8301 44.034C55.218 39.7019 55.9999 38.2966 56.3697 37.6415C57.0354 36.4687 57.046 36.4053 56.5599 36.3102C56.338 36.2679 53.8022 36.2679 50.9282 36.3102C48.0543 36.3419 42.2324 36.3736 38.006 36.3736H30.3139L30.5146 36.7223C30.6309 36.9019 31.6558 38.6981 32.7969 40.6951C34.2022 43.1464 34.8361 44.3615 34.7516 44.4143C34.2973 44.689 30.7471 44.8158 29.3418 44.6045C28.3275 44.4566 26.6686 44.034 25.8127 43.717C25.4324 43.569 25.0731 43.4845 24.9992 43.5268C24.9358 43.5585 24.9146 43.5585 24.9569 43.5057C24.9992 43.4634 24.5977 43.2204 24.0799 42.9668C22.886 42.3857 21.9667 41.794 20.8467 40.8958C20.3712 40.5049 19.9592 40.2196 19.9275 40.2407C19.8958 40.2619 19.8852 40.2513 19.9169 40.209C19.9486 40.1773 19.6105 39.7758 19.1773 39.3215C17.1803 37.2294 15.7433 34.6936 15.0565 32.0838C14.2852 29.1358 14.3909 25.5223 15.3312 22.4792C16.8316 17.6189 20.8573 13.4136 25.7282 11.6173C29.215 10.3283 33.6739 10.2543 37.055 11.4483C39.1154 12.1773 41.1863 13.329 42.6444 14.5758C43.0037 14.8717 43.3312 15.0936 43.3841 15.0513C43.4263 15.009 43.4263 15.0302 43.3946 15.0936C43.3629 15.157 43.6482 15.5056 44.0286 15.886C45.5818 17.4181 46.9237 19.6792 47.8641 22.3841C48.0965 23.0498 48.2656 23.3879 48.4241 23.4724C48.5931 23.557 49.8294 23.5887 52.7773 23.5675L56.898 23.5358L56.9297 23.3034C57.0037 22.8279 55.8626 18.7283 55.6618 18.7283C55.609 18.7283 55.5984 18.686 55.6301 18.6226C55.7146 18.4853 54.8271 16.446 54.1297 15.1887C50.8754 9.32452 45.2331 4.80225 38.9358 3.00602C35.935 2.15018 32.2369 1.75923 29.4263 2.00225Z" fill="white"/>
<path id="Vector_2" d="M18.9975 26.5789C18.1945 26.8113 17.6979 27.2023 17.3598 27.8891C17.1062 28.4174 17.064 28.6181 17.064 29.4C17.0745 30.5517 17.3598 31.1962 18.0994 31.6929C19.23 32.4536 21.1002 32.3585 22.0617 31.4815C22.2625 31.2913 22.2942 31.1646 22.2942 30.4355C22.2942 29.3155 22.1991 29.2204 20.9945 29.1993C20.2972 29.1887 20.0647 29.2204 19.9274 29.3472C19.7372 29.5479 19.7266 29.6008 19.8534 29.8121C19.9168 29.9178 20.2021 29.9812 20.6459 30.0129L21.3432 30.0551V30.5306C21.3432 30.9744 21.3221 31.0061 20.8994 31.1962C20.2549 31.4921 19.3674 31.4815 18.913 31.1646C18.3213 30.7736 18.1206 30.3193 18.1206 29.3472C18.1206 28.6815 18.1628 28.4174 18.3425 28.1321C18.6806 27.5615 19.156 27.2868 19.8428 27.2868C20.4134 27.2868 20.4557 27.3079 20.9311 27.8151C21.4277 28.3434 21.713 28.4596 21.956 28.2166C22.2942 27.8785 21.8715 27.1389 21.1213 26.7479C20.593 26.4838 19.6315 26.4098 18.9975 26.5789Z" fill="white"/>
<path id="Vector_3" d="M29.3314 26.6106C29.1835 26.748 29.1624 27.1495 29.1624 29.3366C29.1624 31.7668 29.1729 31.9147 29.3737 32.0944C29.5427 32.2529 29.6378 32.2634 29.8386 32.1683C30.1978 32.0098 30.2507 31.5661 30.1978 28.9351C30.1661 26.9064 30.1556 26.7268 29.9654 26.5895C29.7012 26.3993 29.5322 26.3993 29.3314 26.6106Z" fill="white"/>
<path id="Vector_4" d="M37.5094 26.6529C37.3087 26.8536 37.2981 27.0015 37.2981 29.3472C37.2981 31.6929 37.3087 31.8408 37.5094 32.0415C37.7736 32.3057 37.9532 32.3057 38.1751 32.0627C38.323 31.9042 38.3547 31.64 38.3547 30.7419V29.6113H39.6226H40.8905V30.7208C40.8905 31.6929 40.9222 31.8619 41.1019 32.0415C41.3555 32.2951 41.4083 32.2951 41.7147 32.0838C41.9472 31.9253 41.9472 31.8936 41.9472 29.3578C41.9472 27.0015 41.926 26.7796 41.757 26.6212C41.5034 26.3887 41.3555 26.3993 41.1019 26.6529C40.9222 26.8325 40.8905 27.0015 40.8905 27.8151V28.7661H39.6226H38.3547V27.7834C38.3547 26.9593 38.323 26.7585 38.1645 26.6212C37.9109 26.3887 37.763 26.3993 37.5094 26.6529Z" fill="white"/>
<path id="Vector_5" d="M44.8738 26.6951C44.747 26.8325 44.4406 27.4664 44.1976 28.1004C43.9546 28.7238 43.5425 29.8015 43.2678 30.4883C42.7606 31.7985 42.7501 32.0521 43.215 32.2C43.5214 32.2951 43.6904 32.126 43.9546 31.4076L44.187 30.7736H45.3704H46.5433L46.7863 31.4076C47.061 32.1049 47.3146 32.3268 47.6421 32.1472C48.0965 31.9042 48.0753 31.8196 46.2686 27.4347C46.0467 26.9064 45.8776 26.6528 45.6874 26.5577C45.2965 26.3887 45.138 26.4098 44.8738 26.6951ZM45.8036 28.7132C46.0044 29.2732 46.1735 29.7804 46.1735 29.8332C46.1735 29.8861 45.7931 29.9283 45.3282 29.9283H44.4829L44.8527 28.8928C45.064 28.3328 45.2542 27.8045 45.2753 27.72C45.3599 27.4981 45.4021 27.5827 45.8036 28.7132Z" fill="white"/>
<path id="Vector_6" d="M48.9947 26.6317C48.8362 26.8008 48.8151 27.1495 48.8151 29.3261C48.8151 32.4008 48.6355 32.1472 50.8226 32.1472C52.5132 32.1472 52.7774 32.0732 52.7034 31.6083C52.6823 31.471 52.6083 31.3653 52.5343 31.3864C52.4709 31.397 52.4076 31.3653 52.4076 31.3019C52.4076 31.2385 51.9109 31.1963 51.1396 31.1963H49.8717V29.0302C49.8717 27.0015 49.8611 26.8536 49.6604 26.6529C49.3962 26.3887 49.2166 26.3887 48.9947 26.6317Z" fill="white"/>
<path id="Vector_7" d="M53.7494 26.6317C53.5909 26.8008 53.5698 27.1495 53.5698 29.3261C53.5698 32.4008 53.3902 32.1472 55.5562 32.1472C56.4015 32.1472 57.1623 32.0944 57.2785 32.0415C57.3947 31.9781 57.4792 31.8197 57.4792 31.6717C57.4792 31.2808 57.1834 31.1963 55.8521 31.1963H54.6264V29.0302C54.6264 27.0015 54.6158 26.8536 54.4151 26.6529C54.1509 26.3887 53.9713 26.3887 53.7494 26.6317Z" fill="white"/>
<path id="Vector_8" d="M23.5621 26.7585C23.3614 26.9593 23.3508 27.0861 23.3719 29.474L23.4036 31.9781L23.6995 32.1472C23.9847 32.2951 24.0059 32.2951 24.2066 32.0521C24.3757 31.8513 24.4074 31.64 24.4074 30.763V29.717H24.8723C25.4957 29.717 25.7704 29.96 26.4361 31.0906C27.0278 32.1049 27.3025 32.348 27.6723 32.1578C27.7991 32.0838 27.8942 31.9359 27.8942 31.7985C27.8836 31.2808 27.0489 29.96 26.8059 30.108C26.753 30.1396 26.7319 30.1185 26.7636 30.0657C26.8481 29.9283 26.4783 29.5796 26.3621 29.6853C26.3198 29.7381 26.3093 29.717 26.341 29.6536C26.3832 29.5902 26.5629 29.5057 26.7425 29.4634C26.9221 29.4317 27.2285 29.2415 27.4293 29.0408C27.7568 28.7132 27.7885 28.6181 27.7885 28.0898C27.7885 27.5615 27.7463 27.4453 27.4504 27.1178C27.0066 26.6529 26.6051 26.5578 25.0202 26.5472C23.9108 26.5472 23.7523 26.5683 23.5621 26.7585ZM26.5206 27.6038C26.8481 27.9313 26.7742 28.7555 26.4149 28.8717C26.3304 28.8929 25.8444 28.9351 25.3372 28.9563L24.4074 28.988V28.1955V27.3925H25.3583C26.1719 27.3925 26.341 27.4242 26.5206 27.6038Z" fill="white"/>
<path id="Vector_9" d="M31.7085 26.7479C31.476 26.9804 31.476 27.0332 31.5077 29.4106C31.55 32.3268 31.4549 32.1472 32.9236 32.1472C34.276 32.1472 34.91 31.9993 35.4066 31.5449C35.956 31.0483 36.1885 30.3932 36.1779 29.3472C36.1673 28.3434 36.0194 27.8257 35.5756 27.3291C35.0473 26.7162 34.7515 26.6212 33.2722 26.5683C32.0043 26.5261 31.9198 26.5366 31.7085 26.7479ZM34.3922 27.5615C34.91 27.8046 35.1213 28.3223 35.1213 29.3472C35.1107 30.277 34.9628 30.7102 34.4873 31.08C34.2549 31.2596 34.0541 31.3019 33.3779 31.3019H32.5432V29.3472V27.3925H33.2934C33.7583 27.3925 34.1809 27.4559 34.3922 27.5615Z" fill="white"/>
</g>
</g>
</svg>
