<svg width="48" height="48" viewBox="0 0 48 48" fill="none" xmlns="http://www.w3.org/2000/svg">
<path d="M24 18.9375C22.9987 18.9375 22.0199 19.2344 21.1874 19.7907C20.3549 20.347 19.706 21.1376 19.3229 22.0627C18.9397 22.9877 18.8394 24.0056 19.0348 24.9876C19.2301 25.9697 19.7123 26.8717 20.4203 27.5797C21.1283 28.2877 22.0303 28.7699 23.0124 28.9652C23.9944 29.1606 25.0123 29.0603 25.9373 28.6771C26.8624 28.294 27.653 27.6451 28.2093 26.8126C28.7656 25.9801 29.0625 25.0013 29.0625 24C29.0625 22.6573 28.5291 21.3697 27.5797 20.4203C26.6303 19.4709 25.3427 18.9375 24 18.9375ZM24 27.375C23.3325 27.375 22.68 27.1771 22.125 26.8062C21.5699 26.4354 21.1374 25.9083 20.8819 25.2916C20.6265 24.6749 20.5596 23.9963 20.6898 23.3416C20.8201 22.6869 21.1415 22.0855 21.6135 21.6135C22.0855 21.1415 22.6869 20.8201 23.3416 20.6898C23.9963 20.5596 24.6749 20.6265 25.2916 20.8819C25.9083 21.1374 26.4354 21.5699 26.8062 22.125C27.1771 22.68 27.375 23.3325 27.375 24C27.3722 24.8942 27.0157 25.7511 26.3834 26.3834C25.7511 27.0157 24.8942 27.3722 24 27.375ZM28.6406 13.4531H19.3594C17.7929 13.4531 16.2907 14.0754 15.183 15.183C14.0754 16.2907 13.4531 17.7929 13.4531 19.3594V28.6406C13.4531 30.2071 14.0754 31.7093 15.183 32.817C16.2907 33.9246 17.7929 34.5469 19.3594 34.5469H28.6406C30.2071 34.5469 31.7093 33.9246 32.817 32.817C33.9246 31.7093 34.5469 30.2071 34.5469 28.6406V19.3594C34.5469 17.7929 33.9246 16.2907 32.817 15.183C31.7093 14.0754 30.2071 13.4531 28.6406 13.4531ZM32.8594 28.6406C32.8594 29.1946 32.7503 29.7432 32.5382 30.2551C32.3262 30.7669 32.0155 31.232 31.6237 31.6237C31.232 32.0155 30.7669 32.3262 30.2551 32.5382C29.7432 32.7503 29.1946 32.8594 28.6406 32.8594H19.3594C18.8054 32.8594 18.2568 32.7503 17.7449 32.5382C17.2331 32.3262 16.768 32.0155 16.3763 31.6237C15.9845 31.232 15.6738 30.7669 15.4618 30.2551C15.2497 29.7432 15.1406 29.1946 15.1406 28.6406V19.3594C15.1406 18.2405 15.5851 17.1674 16.3763 16.3763C17.1674 15.5851 18.2405 15.1406 19.3594 15.1406H28.6406C29.1946 15.1406 29.7432 15.2497 30.2551 15.4618C30.7669 15.6738 31.232 15.9845 31.6237 16.3763C32.0155 16.768 32.3262 17.2331 32.5382 17.7449C32.7503 18.2568 32.8594 18.8054 32.8594 19.3594V28.6406ZM30.75 18.5156C30.75 18.7659 30.6758 19.0106 30.5367 19.2188C30.3976 19.4269 30.2 19.5891 29.9687 19.6849C29.7374 19.7807 29.483 19.8058 29.2375 19.7569C28.992 19.7081 28.7664 19.5876 28.5894 19.4106C28.4124 19.2336 28.2919 19.008 28.2431 18.7625C28.1942 18.517 28.2193 18.2626 28.3151 18.0313C28.4109 17.8 28.5731 17.6024 28.7812 17.4633C28.9894 17.3242 29.2341 17.25 29.4844 17.25C29.82 17.25 30.142 17.3833 30.3793 17.6207C30.6167 17.858 30.75 18.18 30.75 18.5156Z" fill="white"/>
<circle cx="24" cy="24" r="23.5" fill="#13293D" fill-opacity="0.15" stroke="white"/>
</svg>
