<svg width="64" height="64" viewBox="0 0 64 64" fill="none" xmlns="http://www.w3.org/2000/svg">
<circle cx="32" cy="32" r="32" fill="#62649C"/>
<path d="M28 36C27.7363 36 27.4785 36.0782 27.2592 36.2247C27.04 36.3712 26.8691 36.5795 26.7682 36.8231C26.6672 37.0667 26.6408 37.3348 26.6923 37.5935C26.7437 37.8521 26.8707 38.0897 27.0572 38.2761C27.2437 38.4626 27.4812 38.5896 27.7399 38.6411C27.9985 38.6925 28.2666 38.6661 28.5102 38.5652C28.7539 38.4643 28.9621 38.2934 29.1086 38.0741C29.2551 37.8548 29.3333 37.597 29.3333 37.3333C29.3333 36.9797 29.1929 36.6406 28.9428 36.3905C28.6928 36.1405 28.3536 36 28 36ZM18.6667 34.6667C18.313 34.6667 17.9739 34.8071 17.7239 35.0572C17.4738 35.3072 17.3333 35.6464 17.3333 36V38.6667C17.3333 39.0203 17.4738 39.3594 17.7239 39.6095C17.9739 39.8595 18.313 40 18.6667 40C19.0203 40 19.3594 39.8595 19.6095 39.6095C19.8595 39.3594 20 39.0203 20 38.6667V36C20 35.6464 19.8595 35.3072 19.6095 35.0572C19.3594 34.8071 19.0203 34.6667 18.6667 34.6667ZM45.3333 34.6667C44.9797 34.6667 44.6406 34.8071 44.3905 35.0572C44.1405 35.3072 44 35.6464 44 36V38.6667C44 39.0203 44.1405 39.3594 44.3905 39.6095C44.6406 39.8595 44.9797 40 45.3333 40C45.687 40 46.0261 39.8595 46.2761 39.6095C46.5262 39.3594 46.6667 39.0203 46.6667 38.6667V36C46.6667 35.6464 46.5262 35.3072 46.2761 35.0572C46.0261 34.8071 45.687 34.6667 45.3333 34.6667ZM38.6667 25.3333H33.3333V23.6267C33.7364 23.394 34.0715 23.0599 34.3054 22.6576C34.5393 22.2552 34.6639 21.7987 34.6667 21.3333C34.6667 20.6261 34.3857 19.9478 33.8856 19.4477C33.3855 18.9476 32.7072 18.6667 32 18.6667C31.2928 18.6667 30.6145 18.9476 30.1144 19.4477C29.6143 19.9478 29.3333 20.6261 29.3333 21.3333C29.3361 21.7987 29.4607 22.2552 29.6946 22.6576C29.9285 23.0599 30.2636 23.394 30.6667 23.6267V25.3333H25.3333C24.2725 25.3333 23.2551 25.7548 22.5049 26.5049C21.7548 27.2551 21.3333 28.2725 21.3333 29.3333V41.3333C21.3333 42.3942 21.7548 43.4116 22.5049 44.1618C23.2551 44.9119 24.2725 45.3333 25.3333 45.3333H38.6667C39.7275 45.3333 40.745 44.9119 41.4951 44.1618C42.2452 43.4116 42.6667 42.3942 42.6667 41.3333V29.3333C42.6667 28.2725 42.2452 27.2551 41.4951 26.5049C40.745 25.7548 39.7275 25.3333 38.6667 25.3333ZM34.2933 28L33.6267 30.6667H30.3733L29.7067 28H34.2933ZM40 41.3333C40 41.687 39.8595 42.0261 39.6095 42.2761C39.3594 42.5262 39.0203 42.6667 38.6667 42.6667H25.3333C24.9797 42.6667 24.6406 42.5262 24.3905 42.2761C24.1405 42.0261 24 41.687 24 41.3333V29.3333C24 28.9797 24.1405 28.6406 24.3905 28.3905C24.6406 28.1405 24.9797 28 25.3333 28H26.96L28 32.32C28.073 32.6158 28.2451 32.8777 28.4877 33.0621C28.7303 33.2465 29.0288 33.3422 29.3333 33.3333H34.6667C34.9712 33.3422 35.2697 33.2465 35.5123 33.0621C35.7549 32.8777 35.927 32.6158 36 32.32L37.04 28H38.6667C39.0203 28 39.3594 28.1405 39.6095 28.3905C39.8595 28.6406 40 28.9797 40 29.3333V41.3333ZM36 36C35.7363 36 35.4785 36.0782 35.2592 36.2247C35.04 36.3712 34.8691 36.5795 34.7682 36.8231C34.6672 37.0667 34.6408 37.3348 34.6923 37.5935C34.7437 37.8521 34.8707 38.0897 35.0572 38.2761C35.2437 38.4626 35.4812 38.5896 35.7399 38.6411C35.9985 38.6925 36.2666 38.6661 36.5102 38.5652C36.7539 38.4643 36.9621 38.2934 37.1086 38.0741C37.2551 37.8548 37.3333 37.597 37.3333 37.3333C37.3333 36.9797 37.1929 36.6406 36.9428 36.3905C36.6928 36.1405 36.3536 36 36 36Z" fill="white"/>
</svg>
