<svg width="72" height="72" viewBox="0 0 72 72" fill="none" xmlns="http://www.w3.org/2000/svg">
<rect width="72" height="72" rx="8" fill="#C3FAC3"/>
<rect x="8" y="8" width="56" height="56" rx="8" fill="#07E208"/>
<path d="M50.685 49.14L49.605 48.06C50.16 47.22 50.49 46.2 50.49 45.12C50.49 42.15 48.09 39.75 45.12 39.75C42.15 39.75 39.75 42.15 39.75 45.12C39.75 48.09 42.15 50.49 45.12 50.49C46.215 50.49 47.22 50.16 48.06 49.605L49.14 50.685C49.35 50.895 49.635 51 49.905 51C50.19 51 50.46 50.895 50.67 50.685C51.105 50.25 51.105 49.56 50.685 49.14Z" fill="white"/>
<path d="M21.0451 39.9449C21.0451 39.9899 21.0151 40.0499 21.0151 40.0949C22.3951 42.8549 24.6451 45.1199 27.4051 46.4849C27.4501 46.4849 27.5101 46.4549 27.5551 46.4549C27.0451 44.7149 26.6551 42.9299 26.3701 41.1449C24.5701 40.8449 22.7851 40.4549 21.0451 39.9449Z" fill="white"/>
<path d="M46.6051 27.645C45.1951 24.69 42.8101 22.305 39.8701 20.91C40.4101 22.695 40.8601 24.525 41.1601 26.355C42.9901 26.655 44.8201 27.09 46.6051 27.645Z" fill="white"/>
<path d="M20.895 27.645C22.695 27.105 24.525 26.655 26.355 26.355C26.655 24.57 27.03 22.8 27.54 21.06C27.495 21.06 27.435 21.03 27.39 21.03C24.57 22.425 22.275 24.78 20.895 27.645Z" fill="white"/>
<path d="M38.73 26.04C38.37 24.09 37.92 22.14 37.275 20.25C37.245 20.145 37.245 20.055 37.23 19.935C36.12 19.665 34.95 19.5 33.75 19.5C32.535 19.5 31.38 19.665 30.255 19.95C30.24 20.055 30.255 20.145 30.225 20.265C29.595 22.155 29.13 24.09 28.77 26.04C32.085 25.68 35.415 25.68 38.73 26.04Z" fill="white"/>
<path d="M26.04 28.77C24.075 29.13 22.155 29.595 20.25 30.225C20.145 30.255 20.055 30.255 19.95 30.27C19.665 31.38 19.5 32.55 19.5 33.75C19.5 34.965 19.665 36.12 19.95 37.245C20.055 37.26 20.145 37.245 20.265 37.275C22.155 37.905 24.09 38.37 26.055 38.73C25.68 35.415 25.68 32.085 26.04 28.77Z" fill="white"/>
<path d="M47.5498 30.27C47.4448 30.27 47.3548 30.255 47.2348 30.225C45.3448 29.595 43.3948 29.13 41.4448 28.77C41.8198 32.085 41.8198 35.415 41.4448 38.715C43.3948 38.355 45.3448 37.905 47.2348 37.26C47.3398 37.23 47.4298 37.245 47.5498 37.23C47.8198 36.105 47.9998 34.95 47.9998 33.735C47.9998 32.55 47.8348 31.395 47.5498 30.27Z" fill="white"/>
<path d="M28.77 41.4599C29.13 43.4249 29.58 45.3599 30.225 47.2499C30.255 47.3549 30.24 47.4449 30.255 47.5649C31.38 47.8349 32.535 47.9999 33.75 47.9999C34.95 47.9999 36.12 47.8349 37.23 47.5499C37.245 47.4449 37.245 47.3549 37.275 47.2349C37.905 45.3449 38.37 43.4099 38.73 41.4449C37.08 41.6249 35.415 41.7599 33.75 41.7599C32.085 41.7599 30.42 41.6399 28.77 41.4599Z" fill="white"/>
<path d="M28.4249 28.425C27.9749 31.965 27.9749 35.535 28.4249 39.09C31.9649 39.54 35.5349 39.54 39.0899 39.09C39.5399 35.55 39.5399 31.98 39.0899 28.425C35.5349 27.975 31.9649 27.975 28.4249 28.425Z" fill="white"/>
</svg>
